<svg width="244" height="244" viewBox="0 0 244 244" fill="none" xmlns="http://www.w3.org/2000/svg">
<mask id="mask0_2_29" style="mask-type:alpha" maskUnits="userSpaceOnUse" x="0" y="0" width="244" height="244">
<path d="M244 122C244 189.379 189.379 244 122 244C54.6213 244 0 189.379 0 122C0 54.6213 54.6213 0 122 0C189.379 0 244 54.6213 244 122Z" fill="#C4C4C4"/>
</mask>
<g mask="url(#mask0_2_29)">
<rect x="-19" width="281" height="281" fill="#ABE3F4"/>
<path d="M187.5 109C187.5 164.228 151.876 230 121.5 230C91.1243 230 55.5 164.228 55.5 109C55.5 53.7715 91.1243 34 121.5 34C151.876 34 187.5 53.7715 187.5 109Z" fill="black"/>
<path d="M65.7848 125.602C65.0969 141.986 75.3942 148.11 80.1289 149.124L76.1608 113C70.2082 115.664 66.0333 119.682 65.7848 125.602Z" fill="#B47B62"/>
<path d="M176.532 126.629C177.22 143.012 164.923 149.136 160.188 150.151L166.5 114C172.453 116.664 176.284 120.708 176.532 126.629Z" fill="#B47B62"/>
<circle cx="76" cy="169.5" r="22" stroke="#FF9E00" stroke-width="3"/>
<path d="M97.5 201.5L31 227L95 281.5H149L213 227L144.5 201.5H97.5Z" fill="#FF3E3E"/>
<circle cx="167" cy="171.5" r="21.5" stroke="#FF9E00" stroke-width="4"/>
<path d="M98.0793 180C99.2693 180 143.959 180 143.959 180C145.355 204.305 144.187 219.21 138.861 248H102.667C97.136 222.27 96.8893 180 98.0793 180Z" fill="#B48062"/>
<path d="M166.5 114L79.4998 78.5C75.0998 89.7 74.3332 110.5 74.9998 119.5C75.9422 138.094 78.6559 149.568 82.713 159.067C85.7732 166.231 90.3216 172.661 95.4134 178.557C100.323 184.243 104.625 188.005 111.278 190.21C116.597 191.972 122.132 192.22 127.588 190.943C137.658 188.587 146.215 181.118 151.831 172.433C152.993 170.637 154.081 168.755 155.163 166.694C159.482 158.462 162.088 149.442 163.792 140.303C165.582 130.707 166.372 123.597 166.5 114Z" fill="#D09779"/>
<circle cx="99" cy="124" r="4" fill="black"/>
<circle cx="142.5" cy="124" r="4" fill="black"/>
<path d="M132.656 113.416C139.129 110.599 146.484 113.696 149.78 115.864C150.031 116.03 150.336 116.089 150.629 116.02C151.393 115.839 151.687 114.911 151.13 114.357C144.124 107.396 135.947 109.377 131.703 111.814C131.127 112.145 131.128 112.944 131.671 113.327C131.959 113.529 132.334 113.556 132.656 113.416Z" fill="black"/>
<path d="M91.6867 114.972C97.5642 111.011 105.443 112.552 109.102 113.985C109.37 114.09 109.668 114.088 109.931 113.971C110.651 113.652 110.756 112.678 110.092 112.254C101.9 107.029 94.2288 110.465 90.492 113.596C89.9829 114.023 90.138 114.811 90.7488 115.071C91.0563 115.203 91.4095 115.159 91.6867 114.972Z" fill="black"/>
<path d="M114.988 148.881L113.906 147.981C113.097 147.308 113.578 146 114.635 146H127.366C128.455 146 128.916 147.375 128.043 148.021L126.63 149.066C125.897 149.608 125.09 150.045 124.233 150.362L124.051 150.429C121.992 151.19 119.725 151.19 117.666 150.429C116.691 150.068 115.785 149.545 114.988 148.881Z" fill="#B47B62"/>
<path d="M130.889 162.619C124.188 164.811 115.249 163.812 110.358 162.771C109.606 162.61 108.855 163.077 108.692 163.828C108.576 164.365 108.795 164.923 109.256 165.221C118.284 171.049 127.215 169.347 132.602 165.418C133.156 165.014 133.345 164.287 133.112 163.642C132.792 162.753 131.787 162.325 130.889 162.619Z" fill="#B47B62"/>
</g>
</svg>
